<?xml version="1.0" standalone="no"?>
<!DOCTYPE svg PUBLIC "-//W3C//DTD SVG 20010904//EN"
 "http://www.w3.org/TR/2001/REC-SVG-20010904/DTD/svg10.dtd">
<svg version="1.0" xmlns="http://www.w3.org/2000/svg"
 width="874.000000pt" height="884.000000pt" viewBox="0 0 874.000000 884.000000"
 preserveAspectRatio="xMidYMid meet">
<metadata>
Created by potrace 1.16, written by Peter Selinger 2001-2019
</metadata>
<g transform="translate(0.000000,884.000000) scale(0.100000,-0.100000)"
fill="#000000" stroke="none">
<path d="M0 4420 l0 -4420 4370 0 4370 0 0 4420 0 4420 -4370 0 -4370 0 0
-4420z m7570 -5 l0 -1945 -3190 0 -3190 0 0 1945 0 1945 3190 0 3190 0 0
-1945z"/>
<path d="M1300 4420 l0 -1840 3080 0 3080 0 0 1840 0 1840 -3080 0 -3080 0 0
-1840z m1761 1255 c187 -32 321 -97 488 -233 13 -11 9 -24 -34 -108 -76 -148
-98 -154 -232 -67 -162 106 -281 139 -462 131 -136 -7 -236 -45 -312 -119 -74
-72 -103 -142 -107 -257 -4 -84 -1 -98 23 -147 34 -70 112 -140 211 -189 42
-21 169 -69 283 -107 402 -137 552 -234 640 -415 97 -200 74 -496 -57 -712
-261 -433 -976 -499 -1434 -133 -119 95 -116 81 -51 188 69 112 103 136 157
111 18 -9 72 -44 117 -78 155 -114 270 -157 444 -166 342 -20 571 181 553 486
-6 96 -33 156 -98 220 -70 68 -175 117 -417 195 -114 37 -246 84 -294 104
-284 123 -423 342 -406 641 18 329 252 587 594 655 92 18 292 18 394 0z m2169
-570 l0 -555 100 0 c157 0 112 -37 515 420 485 550 578 652 608 671 28 17 52
19 210 19 97 0 177 -2 177 -5 0 -3 -120 -142 -268 -308 -147 -166 -369 -417
-493 -557 -220 -249 -299 -330 -319 -330 -21 0 -9 -18 19 -30 41 -17 89 -65
211 -211 58 -69 287 -343 510 -608 223 -266 407 -487 408 -492 4 -10 -307 -13
-357 -3 -41 9 -48 16 -306 314 -732 846 -693 803 -740 828 -21 11 -66 17 -152
20 l-123 4 -2 -583 -3 -584 -172 -3 -173 -2 0 1275 0 1275 175 0 175 0 0 -555z"/>
</g>
</svg>
